<!--?xml version="1.0" standalone="no"?-->
              <svg id="sw-js-blob-svg" viewBox="0 0 100 100" xmlns="http://www.w3.org/2000/svg" version="1.1">
                    <defs> 
                        <linearGradient id="sw-gradient" x1="0" x2="1" y1="1" y2="0">
                            <stop id="stop1" stop-color="rgba(248, 117, 55, 1)" offset="0%"></stop>
                            <stop id="stop2" stop-color="rgba(251, 168, 31, 1)" offset="100%"></stop>
                        </linearGradient>
                    </defs>
                <path fill="url(#sw-gradient)" d="M19.6,-33.5C26.3,-30.2,33.1,-26.6,36.3,-21C39.6,-15.4,39.2,-7.7,38.7,-0.2C38.3,7.2,37.8,14.4,35.3,21.1C32.7,27.8,28,34.1,21.7,37.8C15.5,41.6,7.8,42.8,0.5,42C-6.8,41.2,-13.7,38.4,-20.7,35.1C-27.6,31.7,-34.7,28,-39.6,22C-44.5,16.1,-47.1,8.1,-46.5,0.3C-45.9,-7.4,-42.1,-14.7,-37,-20.2C-31.9,-25.8,-25.5,-29.5,-19.1,-33C-12.8,-36.6,-6.4,-40,0,-40C6.5,-40.1,13,-36.9,19.6,-33.5Z" width="100%" height="100%" transform="translate(50 50)" stroke-width="0" style="transition: 0.3s;"></path>
              </svg>